{
	"bufferViews":[{
		"buffer":0,
		"byteOffset":0,
		"byteLength":36720,
		"target":34963
	},
	{
		"buffer":0,
		"byteOffset":36720,
		"byteLength":203552,
		"target":34962,
		"byteStride":32
	},
	{
		"buffer":1,
		"byteOffset":0,
		"byteLength":280926,
		"target":34963
	},
	{
		"buffer":1,
		"byteOffset":280928,
		"byteLength":846272,
		"target":34962,
		"byteStride":32
	},
	{
		"buffer":2,
		"byteOffset":0,
		"byteLength":9216,
		"target":34963
	},
	{
		"buffer":2,
		"byteOffset":9216,
		"byteLength":24576,
		"target":34962,
		"byteStride":32
	}],
	"asset":{
		"version":"2.0",
		"generator":"Created using the official Cinema 4D glTF Exporter 1.000x284978"
	},
	"scenes":[{
		"nodes":[0]
	}],
	"nodes":[{
		"children":[1,
		2,
		3],
		"name":"Hoodie"
	},
	{
		"name":"Hoodie-luminance",
		"mesh":0
	},
	{
		"name":"Hoodie-base",
		"mesh":1
	},
	{
		"name":"Hoodie-logo",
		"mesh":2
	}],
	"meshes":[{
		"name":"Hoodie-luminance",
		"primitives":[{
			"attributes":{
				"POSITION":1,
				"NORMAL":2,
				"TEXCOORD_0":3
			},
			"indices":0,
			"material":0
		}]
	},
	{
		"name":"Hoodie-base",
		"primitives":[{
			"attributes":{
				"POSITION":5,
				"NORMAL":6,
				"TEXCOORD_0":7
			},
			"indices":4,
			"material":1
		}]
	},
	{
		"name":"Hoodie-logo",
		"primitives":[{
			"attributes":{
				"POSITION":9,
				"NORMAL":10,
				"TEXCOORD_0":11
			},
			"indices":8,
			"material":2
		}]
	}],
	"accessors":[{
		"bufferView":0,
		"type":"SCALAR",
		"componentType":5123,
		"count":18360,
		"byteOffset":0,
		"min":[0],
		"max":[6360]
	},
	{
		"bufferView":1,
		"type":"VEC3",
		"componentType":5126,
		"count":6361,
		"byteOffset":0,
		"min":[-52.84443664550781,
		-39.500999450683597,
		-19.287303924560548],
		"max":[52.84443664550781,
		39.14021301269531,
		19.03363609313965]
	},
	{
		"bufferView":1,
		"type":"VEC3",
		"componentType":5126,
		"count":6361,
		"byteOffset":12,
		"min":[-0.9997450709342957,
		-0.9999920129776001,
		-0.9999972581863403],
		"max":[0.9999287724494934,
		0.9665286540985107,
		0.9999201893806458]
	},
	{
		"bufferView":1,
		"type":"VEC2",
		"componentType":5126,
		"count":6361,
		"byteOffset":24,
		"min":[0.5690781474113464,
		0.012335740029811859],
		"max":[0.9904732704162598,
		0.4092583656311035]
	},
	{
		"bufferView":2,
		"type":"SCALAR",
		"componentType":5123,
		"count":140463,
		"byteOffset":0,
		"min":[0],
		"max":[26445]
	},
	{
		"bufferView":3,
		"type":"VEC3",
		"componentType":5126,
		"count":26446,
		"byteOffset":0,
		"min":[-52.576377868652347,
		-39.101200103759769,
		-19.246423721313478],
		"max":[52.58836364746094,
		39.500999450683597,
		19.287303924560548]
	},
	{
		"bufferView":3,
		"type":"VEC3",
		"componentType":5126,
		"count":26446,
		"byteOffset":12,
		"min":[-0.9999530911445618,
		-0.9994524121284485,
		-0.9999955892562866],
		"max":[0.999958336353302,
		0.9996182918548584,
		0.9999774694442749]
	},
	{
		"bufferView":3,
		"type":"VEC2",
		"componentType":5126,
		"count":26446,
		"byteOffset":24,
		"min":[0.0280909426510334,
		0.4410364627838135],
		"max":[0.6325270533561707,
		0.9630881547927856]
	},
	{
		"bufferView":4,
		"type":"SCALAR",
		"componentType":5123,
		"count":4608,
		"byteOffset":0,
		"min":[0],
		"max":[767]
	},
	{
		"bufferView":5,
		"type":"VEC3",
		"componentType":5126,
		"count":768,
		"byteOffset":0,
		"min":[-4.872204780578613,
		9.557798385620118,
		-15.666582107543946],
		"max":[4.92370080947876,
		15.423701286315918,
		17.449125289916993]
	},
	{
		"bufferView":5,
		"type":"VEC3",
		"componentType":5126,
		"count":768,
		"byteOffset":12,
		"min":[-0.8205087184906006,
		-0.9165254235267639,
		-0.999778151512146],
		"max":[0.8162927627563477,
		0.97203129529953,
		0.999778151512146]
	},
	{
		"bufferView":5,
		"type":"VEC2",
		"componentType":5126,
		"count":768,
		"byteOffset":24,
		"min":[0.0,
		0.0],
		"max":[0.0,
		0.0]
	}],
	"buffers":[{
		"uri":"data:application/octet-stream;base64,",
		"byteLength":240272
	},
	{
		"uri":"data:application/octet-stream;base64,",
		"byteLength":1127200
	},
	{
		"uri":"data:application/octet-stream;base64,",
		"byteLength":33792
	}],
	"materials":[{
		"pbrMetallicRoughness":{
			"baseColorFactor":[1.0,
			1.0,
			1.0,
			1.0],
			"metallicFactor":0.0,
			"roughnessFactor":0.5
		},
		"emissiveFactor":[0.0,
		1.0,
		0.08333333333333348],
		"alphaMode":"OPAQUE",
		"doubleSided":false,
		"name":"luminance"
	},
	{
		"pbrMetallicRoughness":{
			"baseColorFactor":[0.29,
			0.29,
			0.29,
			1.0],
			"metallicFactor":1.0,
			"roughnessFactor":0.34
		},
		"emissiveFactor":[0.0,
		0.0,
		0.0],
		"alphaMode":"OPAQUE",
		"doubleSided":false,
		"name":"base"
	},
	{
		"pbrMetallicRoughness":{
			"baseColorFactor":[0.25,
			0.25,
			0.25,
			1.0],
			"metallicFactor":0.0,
			"roughnessFactor":0.4830075027221463
		},
		"emissiveFactor":[0.8955000000000001,
		1.0,
		0.42999999999999996],
		"alphaMode":"OPAQUE",
		"doubleSided":false,
		"name":"logo"
	}]
}